<svg xmlns="http://www.w3.org/2000/svg" viewBox="0 0 1000 720" font-family="Segoe UI,sans-serif">
<rect width="1000" height="720" fill="#1e1e1e"/>
<!-- Modal head -->
<rect x="0" y="0" width="1000" height="32" fill="#252526"/>
<text x="14" y="21" fill="#fff" font-size="12" font-weight="600">📊 Activity Monitor</text>
<text x="974" y="22" fill="#999" font-size="16">×</text>
<!-- Sub bar -->
<rect x="0" y="32" width="1000" height="34" fill="#252526"/>
<text x="14" y="54" fill="#fff" font-size="11" font-weight="600">Overview</text>
<text x="80" y="54" fill="#999" font-size="11">· Auto-refresh every 2 seconds</text>
<text x="640" y="54" fill="#999" font-size="11">Server: localhost\SQLEXPRESS · User: adewale · DB: master</text>
<!-- KPI cards row 1 -->
<g font-size="10.5">
<!-- Card 1 -->
<rect x="14" y="78" width="234" height="120" fill="#252526" stroke="#3f3f46"/>
<rect x="14" y="78" width="3" height="120" fill="#0078d4"/>
<text x="28" y="96" fill="#999" font-weight="600" letter-spacing="0.5">TOTAL QUERIES</text>
<text x="28" y="128" fill="#fff" font-size="22" font-weight="700" font-family="JetBrains Mono,monospace">147</text>
<text x="28" y="146" fill="#999" font-size="10">since session start</text>
<g transform="translate(28,156)">
<rect x="0" y="22" width="6" height="14" fill="#0078d4" fill-opacity="0.6"/>
<rect x="7" y="18" width="6" height="18" fill="#0078d4" fill-opacity="0.6"/>
<rect x="14" y="26" width="6" height="10" fill="#0078d4" fill-opacity="0.6"/>
<rect x="21" y="14" width="6" height="22" fill="#0078d4" fill-opacity="0.6"/>
<rect x="28" y="20" width="6" height="16" fill="#0078d4" fill-opacity="0.6"/>
<rect x="35" y="8" width="6" height="28" fill="#0078d4" fill-opacity="0.6"/>
<rect x="42" y="24" width="6" height="12" fill="#0078d4" fill-opacity="0.6"/>
<rect x="49" y="16" width="6" height="20" fill="#0078d4" fill-opacity="0.6"/>
<rect x="56" y="22" width="6" height="14" fill="#0078d4" fill-opacity="0.6"/>
<rect x="63" y="10" width="6" height="26" fill="#0078d4" fill-opacity="0.6"/>
<rect x="70" y="18" width="6" height="18" fill="#0078d4" fill-opacity="0.6"/>
<rect x="77" y="24" width="6" height="12" fill="#0078d4" fill-opacity="0.6"/>
<rect x="84" y="6" width="6" height="30" fill="#0078d4" fill-opacity="0.6"/>
<rect x="91" y="20" width="6" height="16" fill="#0078d4" fill-opacity="0.6"/>
<rect x="98" y="14" width="6" height="22" fill="#0078d4" fill-opacity="0.6"/>
<rect x="105" y="26" width="6" height="10" fill="#0078d4" fill-opacity="0.6"/>
<rect x="112" y="12" width="6" height="24" fill="#0078d4" fill-opacity="0.6"/>
<rect x="119" y="22" width="6" height="14" fill="#0078d4" fill-opacity="0.6"/>
<rect x="126" y="18" width="6" height="18" fill="#0078d4" fill-opacity="0.6"/>
<rect x="133" y="8" width="6" height="28" fill="#0078d4" fill-opacity="0.6"/>
</g>
<!-- Card 2 -->
<rect x="258" y="78" width="234" height="120" fill="#252526" stroke="#3f3f46"/>
<rect x="258" y="78" width="3" height="120" fill="#4ec9b0"/>
<text x="272" y="96" fill="#999" font-weight="600" letter-spacing="0.5">AVG QUERY TIME</text>
<text x="272" y="128" fill="#fff" font-size="22" font-weight="700" font-family="JetBrains Mono,monospace">18<tspan font-size="11" fill="#999">ms</tspan></text>
<text x="272" y="146" fill="#999" font-size="10">last 20 queries</text>
<!-- Card 3 -->
<rect x="502" y="78" width="234" height="120" fill="#252526" stroke="#3f3f46"/>
<rect x="502" y="78" width="3" height="120" fill="#4ec9b0"/>
<text x="516" y="96" fill="#999" font-weight="600" letter-spacing="0.5">TOTAL ROWS RETURNED</text>
<text x="516" y="128" fill="#fff" font-size="22" font-weight="700" font-family="JetBrains Mono,monospace">12,847</text>
<text x="516" y="146" fill="#999" font-size="10">across all queries</text>
<!-- Card 4 -->
<rect x="746" y="78" width="240" height="120" fill="#252526" stroke="#3f3f46"/>
<rect x="746" y="78" width="3" height="120" fill="#4ec9b0"/>
<text x="760" y="96" fill="#999" font-weight="600" letter-spacing="0.5">FAILED QUERIES</text>
<text x="760" y="128" fill="#fff" font-size="22" font-weight="700" font-family="JetBrains Mono,monospace">0</text>
<text x="760" y="146" fill="#999" font-size="10">no errors</text>
<!-- KPI cards row 2 -->
<rect x="14" y="210" width="234" height="120" fill="#252526" stroke="#3f3f46"/>
<rect x="14" y="210" width="3" height="120" fill="#0078d4"/>
<text x="28" y="228" fill="#999" font-weight="600" letter-spacing="0.5">DATABASE UPTIME</text>
<text x="28" y="258" fill="#fff" font-size="16" font-weight="700" font-family="JetBrains Mono,monospace">02:14:38</text>
<text x="28" y="276" fill="#999" font-size="10">hh:mm:ss this session</text>
<rect x="258" y="210" width="234" height="120" fill="#252526" stroke="#3f3f46"/>
<rect x="258" y="210" width="3" height="120" fill="#0078d4"/>
<text x="272" y="228" fill="#999" font-weight="600" letter-spacing="0.5">TABLES IN MASTER</text>
<text x="272" y="258" fill="#fff" font-size="22" font-weight="700" font-family="JetBrains Mono,monospace">13</text>
<text x="272" y="278" fill="#999" font-size="10">user tables</text>
<rect x="502" y="210" width="234" height="120" fill="#252526" stroke="#3f3f46"/>
<rect x="502" y="210" width="3" height="120" fill="#0078d4"/>
<text x="516" y="228" fill="#999" font-weight="600" letter-spacing="0.5">ACTIVE CONNECTIONS</text>
<text x="516" y="258" fill="#fff" font-size="22" font-weight="700" font-family="JetBrains Mono,monospace">1</text>
<text x="516" y="278" fill="#999" font-size="10">adewale@localhost</text>
<rect x="746" y="210" width="240" height="120" fill="#252526" stroke="#3f3f46"/>
<rect x="746" y="210" width="3" height="120" fill="#0078d4"/>
<text x="760" y="228" fill="#999" font-weight="600" letter-spacing="0.5">SQL ENGINE</text>
<text x="760" y="258" fill="#fff" font-size="14" font-weight="700">SQLite WASM</text>
<text x="760" y="278" fill="#999" font-size="10">v1.10.2 (SQLite 3.43)</text>
</g>
<!-- Recent queries header -->
<rect x="0" y="346" width="1000" height="28" fill="#252526"/>
<text x="14" y="365" fill="#fff" font-size="11.5" font-weight="600">Top 10 Recent Queries</text>
<!-- Recent queries table -->
<rect x="0" y="374" width="1000" height="22" fill="#2d2d30"/>
<g fill="#ccc" font-size="11" font-weight="600" font-family="JetBrains Mono,monospace">
<text x="14" y="389">Time</text>
<text x="110" y="389">Event</text>
<text x="180" y="389">SQL (first 100 chars)</text>
<text x="780" y="389">Duration</text>
<text x="888" y="389">Rows</text>
</g>
<g font-size="11" font-family="JetBrains Mono,monospace" fill="#ccc">
<rect x="0" y="396" width="1000" height="20" fill="#1e1e1e"/>
<text x="14" y="410">14:23:47</text>
<rect x="106" y="400" width="34" height="13" rx="6" fill="#107c10"/><text x="115" y="410" fill="#fff" font-size="9" font-weight="600">SQL</text>
<text x="180" y="410">SELECT TOP 10 e.first_name, e.department, IIF(e.salary &gt; 800000...</text>
<text x="788" y="410" fill="#4ec9b0">14ms</text>
<text x="894" y="410">10</text>
<rect x="0" y="416" width="1000" height="20" fill="#252526"/>
<text x="14" y="430">14:23:30</text>
<rect x="106" y="420" width="34" height="13" rx="6" fill="#107c10"/><text x="115" y="430" fill="#fff" font-size="9" font-weight="600">SQL</text>
<text x="180" y="430">SELECT department, COUNT(*) AS headcount FROM employees GROUP BY...</text>
<text x="788" y="430" fill="#4ec9b0">8ms</text>
<text x="894" y="430">7</text>
<rect x="0" y="436" width="1000" height="20" fill="#1e1e1e"/>
<text x="14" y="450">14:22:15</text>
<rect x="106" y="440" width="42" height="13" rx="6" fill="#008575"/><text x="115" y="450" fill="#fff" font-size="9" font-weight="600">DML</text>
<text x="180" y="450">UPDATE employees SET salary = salary * 1.10 WHERE department = ...</text>
<text x="788" y="450" fill="#4ec9b0">22ms</text>
<text x="894" y="450">3</text>
<rect x="0" y="456" width="1000" height="20" fill="#252526"/>
<text x="14" y="470">14:21:02</text>
<rect x="106" y="460" width="34" height="13" rx="6" fill="#107c10"/><text x="115" y="470" fill="#fff" font-size="9" font-weight="600">SQL</text>
<text x="180" y="470">SELECT c.customer_name, SUM(o.total_amount) FROM customers c LEFT JOIN...</text>
<text x="788" y="470" fill="#dcdcaa">142ms</text>
<text x="894" y="470">10</text>
<rect x="0" y="476" width="1000" height="20" fill="#1e1e1e"/>
<text x="14" y="490">14:20:48</text>
<rect x="106" y="480" width="34" height="13" rx="6" fill="#5c2d91"/><text x="115" y="490" fill="#fff" font-size="9" font-weight="600">DDL</text>
<text x="180" y="490">CREATE VIEW vw_top_earners AS SELECT * FROM employees ORDER BY salary DESC...</text>
<text x="788" y="490" fill="#4ec9b0">5ms</text>
<text x="894" y="490">0</text>
<rect x="0" y="496" width="1000" height="20" fill="#252526"/>
<text x="14" y="510">14:19:33</text>
<rect x="106" y="500" width="34" height="13" rx="6" fill="#107c10"/><text x="115" y="510" fill="#fff" font-size="9" font-weight="600">SQL</text>
<text x="180" y="510">WITH dept_avg AS (SELECT department, AVG(salary) FROM employees GROUP BY...</text>
<text x="788" y="510" fill="#4ec9b0">19ms</text>
<text x="894" y="510">6</text>
</g>
<!-- Footer attribution -->
<rect x="0" y="688" width="1000" height="32" fill="#252526"/>
<text x="500" y="708" fill="#666" font-size="10" font-style="italic" text-anchor="middle">Activity Monitor · MS SQL Server Simulator v10 by Adewale Samson Adeagbo · cssadewale.pages.dev</text>
</svg>
