<svg xmlns="http://www.w3.org/2000/svg" viewBox="0 0 1200 630" font-family="Segoe UI,Arial,sans-serif">
<rect width="1200" height="630" fill="#0078d4"/>
<rect width="1200" height="630" fill="#005a9e" opacity="0.6"/>
<rect x="0" y="400" width="1200" height="230" fill="#003c6e" opacity="0.5"/>
<rect x="0" y="0" width="1200" height="200" fill="#fff" opacity="0.05"/>

<!-- Decorative cylinder icon (right side) -->
<g transform="translate(880,80)" opacity="0.25">
<ellipse cx="100" cy="35" rx="100" ry="32" fill="#fff"/>
<path d="M0 35v220c0 18 45 32 100 32s100-14 100-32V35" fill="#fff"/>
<ellipse cx="100" cy="110" rx="100" ry="32" fill="none" stroke="#0078d4" stroke-width="4"/>
<ellipse cx="100" cy="185" rx="100" ry="32" fill="none" stroke="#0078d4" stroke-width="4"/>
</g>

<!-- v10 ENTERPRISE badge -->
<rect x="80" y="80" width="220" height="36" rx="4" fill="#107c10"/>
<text x="190" y="105" fill="#fff" font-size="15" font-weight="700" text-anchor="middle">v10 ENTERPRISE EDITION</text>

<!-- Main title -->
<text x="80" y="200" fill="#fff" font-size="68" font-weight="800">MS SQL Server</text>
<text x="80" y="278" fill="#fff" font-size="68" font-weight="800">Simulator</text>

<!-- Subtitle -->
<text x="80" y="328" fill="#fff" font-size="22">Free · Browser-based · SSMS-inspired enterprise workbench</text>
<text x="80" y="358" fill="#fff" opacity="0.85" font-size="17">No backend · No AI API · No subscription · Single HTML file</text>

<!-- Feature pills row 1 -->
<g font-size="14" font-weight="600">
<rect x="80" y="385" width="170" height="32" rx="16" fill="#fff" fill-opacity="0.22"/>
<text x="165" y="406" fill="#fff" text-anchor="middle">65+ T-SQL Rules</text>
<rect x="262" y="385" width="180" height="32" rx="16" fill="#fff" fill-opacity="0.22"/>
<text x="352" y="406" fill="#fff" text-anchor="middle">Activity Monitor</text>
<rect x="454" y="385" width="130" height="32" rx="16" fill="#fff" fill-opacity="0.22"/>
<text x="519" y="406" fill="#fff" text-anchor="middle">Profiler</text>
<rect x="596" y="385" width="190" height="32" rx="16" fill="#fff" fill-opacity="0.22"/>
<text x="691" y="406" fill="#fff" text-anchor="middle">Stored Procedures</text>
</g>
<!-- Feature pills row 2 -->
<g font-size="14" font-weight="600">
<rect x="80" y="427" width="210" height="32" rx="16" fill="#fff" fill-opacity="0.22"/>
<text x="185" y="448" fill="#fff" text-anchor="middle">Backup &amp; Restore</text>
<rect x="302" y="427" width="170" height="32" rx="16" fill="#fff" fill-opacity="0.22"/>
<text x="387" y="448" fill="#fff" text-anchor="middle">SQL Agent Jobs</text>
<rect x="484" y="427" width="180" height="32" rx="16" fill="#fff" fill-opacity="0.22"/>
<text x="574" y="448" fill="#fff" text-anchor="middle">Extended Events</text>
<rect x="676" y="427" width="200" height="32" rx="16" fill="#fff" fill-opacity="0.22"/>
<text x="776" y="448" fill="#fff" text-anchor="middle">Columnstore Index</text>
</g>

<!-- Builder card at bottom -->
<rect x="60" y="495" width="1080" height="110" rx="14" fill="#fff" fill-opacity="0.13" stroke="#fff" stroke-opacity="0.35" stroke-width="2"/>
<circle cx="135" cy="550" r="38" fill="#fff"/>
<text x="135" y="563" fill="#0078d4" font-size="28" font-weight="800" text-anchor="middle">AA</text>
<text x="195" y="534" fill="#fff" font-size="26" font-weight="700">Built by Adewale Samson Adeagbo</text>
<text x="195" y="560" fill="#fff" opacity="0.9" font-size="15">Data Scientist · EdTech Builder · AI-Augmented Solutions Developer</text>
<text x="195" y="582" fill="#fff" opacity="0.85" font-size="13">cssadewale.pages.dev · linkedin.com/in/adewalesamsonadeagbo · HMG Concepts · Lagos, Nigeria 🇳🇬</text>

<!-- Footer -->
<text x="600" y="620" fill="#fff" opacity="0.7" font-size="11" text-anchor="middle">github.com/cssadewale/ms-sql-server-simulator · MIT Licence · 2026 · Built on an Android tablet</text>
</svg>
